# Exported from Wings 3D 1.5.4
mtllib crate2.mtl
o Cube4
#86 vertices, 96 faces
v -1.00000000 -3.3516960e-3 -1.00000000
v -1.00000000 -3.3516960e-3 1.00000000
v -1.00000000 1.99664830 -1.00000000
v -1.00000000 1.99664830 1.00000000
v 1.00000000 -3.3516960e-3 -1.00000000
v 1.00000000 -3.3516960e-3 1.00000000
v 1.00000000 1.99664830 -1.00000000
v 1.00000000 1.99664830 1.00000000
v 0.0000000e+0 0.99664830 1.00000000
v 1.00000000 0.99664830 0.0000000e+0
v 0.0000000e+0 0.99664830 -1.00000000
v -1.00000000 0.99664830 0.0000000e+0
v 0.0000000e+0 1.99664830 0.0000000e+0
v 0.0000000e+0 -3.3516960e-3 0.0000000e+0
v -0.89133333 1.96490130 -0.73765546
v -0.89133333 1.96490130 0.73765546
v -0.15367787 1.96490130 0.0000000e+0
v -0.73765546 2.8395304e-2 -0.89133333
v 0.73765546 2.8395304e-2 -0.89133333
v 0.0000000e+0 2.8395304e-2 -0.15367787
v -0.73765546 0.10531497 0.96825300
v 0.73765546 0.10531497 0.96825300
v 0.0000000e+0 0.84297043 0.96825300
v -0.89133333 0.25899284 -0.96825300
v -0.89133333 1.73430376 -0.96825300
v -0.15367787 0.99664830 -0.96825300
v 0.96825300 0.25899284 -0.89133333
v 0.96825300 1.73430376 -0.89133333
v 0.96825300 0.99664830 -0.15367787
v -0.96825300 0.25899284 0.89133333
v -0.96825300 1.73430376 0.89133333
v -0.96825300 0.99664830 0.15367787
v 0.73765546 1.88798164 0.96825300
v -0.73765546 1.88798164 0.96825300
v 0.0000000e+0 1.15032618 0.96825300
v 0.89133333 0.25899284 0.96825300
v 0.89133333 1.73430376 0.96825300
v 0.15367787 0.99664830 0.96825300
v -0.89133333 1.73430376 0.96825300
v -0.89133333 0.25899284 0.96825300
v -0.15367787 0.99664830 0.96825300
v 0.96825300 1.73430376 0.89133333
v 0.96825300 0.25899284 0.89133333
v 0.96825300 0.99664830 0.15367787
v 0.96825300 1.88798164 -0.73765546
v 0.96825300 1.88798164 0.73765546
v 0.96825300 1.15032618 0.0000000e+0
v 0.96825300 0.10531497 0.73765546
v 0.96825300 0.10531497 -0.73765546
v 0.96825300 0.84297043 0.0000000e+0
v 0.89133333 1.73430376 -0.96825300
v 0.89133333 0.25899284 -0.96825300
v 0.15367787 0.99664830 -0.96825300
v -0.73765546 1.88798164 -0.96825300
v 0.73765546 1.88798164 -0.96825300
v 0.0000000e+0 1.15032618 -0.96825300
v 0.73765546 0.10531497 -0.96825300
v -0.73765546 0.10531497 -0.96825300
v 0.0000000e+0 0.84297043 -0.96825300
v -0.96825300 1.73430376 -0.89133333
v -0.96825300 0.25899284 -0.89133333
v -0.96825300 0.99664830 -0.15367787
v -0.96825300 1.88798164 0.73765546
v -0.96825300 1.88798164 -0.73765546
v -0.96825300 1.15032618 0.0000000e+0
v -0.96825300 0.10531497 -0.73765546
v -0.96825300 0.10531497 0.73765546
v -0.96825300 0.84297043 0.0000000e+0
v 0.89133333 1.96490130 0.73765546
v 0.89133333 1.96490130 -0.73765546
v 0.15367787 1.96490130 0.0000000e+0
v -0.73765546 1.96490130 0.89133333
v 0.73765546 1.96490130 0.89133333
v 0.0000000e+0 1.96490130 0.15367787
v 0.73765546 1.96490130 -0.89133333
v -0.73765546 1.96490130 -0.89133333
v 0.0000000e+0 1.96490130 -0.15367787
v 0.73765546 2.8395304e-2 0.89133333
v -0.73765546 2.8395304e-2 0.89133333
v 0.0000000e+0 2.8395304e-2 0.15367787
v 0.89133333 2.8395304e-2 -0.73765546
v 0.89133333 2.8395304e-2 0.73765546
v 0.15367787 2.8395304e-2 0.0000000e+0
v -0.89133333 2.8395304e-2 0.73765546
v -0.89133333 2.8395304e-2 -0.73765546
v -0.15367787 2.8395304e-2 0.0000000e+0
vt 0.0000000e+0 0.0000000e+0
vt 0.0000000e+0 0.33326838
vt 0.0000000e+0 0.66653850
vt 0.0000000e+0 0.99990431
vt 1.6653345e-16 0.66663419
vt 9.7265609e-5 0.33326838
vt 1.8250497e-2 0.37719507
vt 1.8250497e-2 0.71056088
vt 1.8277956e-2 0.62261088
vt 1.8277956e-2 0.95597669
vt 1.8305764e-2 4.3944528e-2
vt 1.8374023e-2 0.28934732
vt 4.3923268e-2 1.8266067e-2
vt 4.3930601e-2 0.35156020
vt 4.3930601e-2 0.68492601
vt 4.3932685e-2 0.64827314
vt 4.3932685e-2 0.98163895
vt 4.4005107e-2 0.31501055
vt 0.14060156 0.16661452
vt 0.14061205 0.49995811
vt 0.14061205 0.83332392
vt 0.16663194 0.52601105
vt 0.16663194 0.85937686
vt 0.16663460 0.49995128
vt 0.16663460 0.83331709
vt 0.16663726 0.47389151
vt 0.16663726 0.80725732
vt 0.16666004 0.14060759
vt 0.16668411 0.16663419
vt 0.16670817 0.19266078
vt 0.19265715 0.49994446
vt 0.19265715 0.83331027
vt 0.19276666 0.16665386
vt 0.28933652 0.35162942
vt 0.28933652 0.68499523
vt 0.28933860 0.64834237
vt 0.28933860 0.98170818
vt 0.28936311 1.8257826e-2
vt 0.28944495 0.31500231
vt 0.31499125 0.37729168
vt 0.31499125 0.71065750
vt 0.31499419 4.3921055e-2
vt 0.31501871 0.62270749
vt 0.31501871 0.95607330
vt 0.31506245 0.28932385
vt 0.33326920 0.33336407
vt 0.33326920 0.66663419
vt 0.33326920 0.66672988
vt 0.33326920 0.99990339
vt 0.33326920 1.00000000
vt 0.33327095 0.0000000e+0
vt 0.33336489 0.66663419
vt 0.33336822 0.33326838
vt 0.33336822 0.33326920
vt 0.33336822 0.66653841
vt 0.33346390 0.0000000e+0
vt 0.33346390 0.33326920
vt 0.35156103 0.95597279
vt 0.35163025 0.71056687
vt 0.35166004 0.28933860
vt 0.35166004 0.62260781
vt 0.35172926 4.3932685e-2
vt 0.35172926 0.37720189
vt 0.37719590 0.98165290
vt 0.37729251 0.68491214
vt 0.37729491 0.31501871
vt 0.37729491 0.64828791
vt 0.37739152 1.8277956e-2
vt 0.37739152 0.35154716
vt 0.47389234 0.83326613
vt 0.47399135 0.16663194
vt 0.47399135 0.49990115
vt 0.49994528 0.80724624
vt 0.49995211 0.83326879
vt 0.49995894 0.85929134
vt 0.50004430 0.14061205
vt 0.50004430 0.47388126
vt 0.50005112 0.16663460
vt 0.50005112 0.49990381
vt 0.50005795 0.19265715
vt 0.50005795 0.52592635
vt 0.52601188 0.83327145
vt 0.52611089 0.16663726
vt 0.52611089 0.49990647
vt 0.62261171 0.98162544
vt 0.62270832 0.68488469
vt 0.62271072 0.31499125
vt 0.62271072 0.64826045
vt 0.62280733 1.8250497e-2
vt 0.62280733 0.35151970
vt 0.64827397 0.95597071
vt 0.64834319 0.71056479
vt 0.64837298 0.28933652
vt 0.64837298 0.62260572
vt 0.64844220 4.3930601e-2
vt 0.64844220 0.37719981
vt 0.66653933 0.99990339
vt 0.66663502 0.66663419
vt 0.66663834 0.33326920
vt 0.66663834 0.66653841
vt 0.66673403 1.1102230e-16
vt 0.66673403 0.33326920
vn -0.57735027 -0.57735027 -0.57735027
vn -0.57735027 -0.57735027 0.57735027
vn -0.57735027 0.57735026 -0.57735027
vn -0.57735027 0.57735026 0.57735027
vn 0.57735027 -0.57735027 -0.57735027
vn 0.57735027 -0.57735027 0.57735027
vn 0.57735027 0.57735026 -0.57735027
vn 0.57735027 0.57735026 0.57735027
vn 0.0000000e+0 -1.9352612e-9 1.00000000
vn 1.00000000 -1.9352612e-9 0.0000000e+0
vn 0.0000000e+0 -1.9352612e-9 -1.00000000
vn -1.00000000 -1.9352612e-9 0.0000000e+0
vn 0.0000000e+0 1.00000000 0.0000000e+0
vn 0.0000000e+0 -1.00000000 0.0000000e+0
vn 2.8055266e-2 0.99730906 6.7731416e-2
vn 2.8055266e-2 0.99730906 -6.7731416e-2
vn -0.13459244 0.99090104 0.0000000e+0
vn 6.7731416e-2 -0.99730906 2.8055266e-2
vn -6.7731416e-2 -0.99730906 2.8055266e-2
vn 0.0000000e+0 -0.99090104 -0.13459244
vn 6.7731415e-2 2.8055270e-2 0.99730906
vn -6.7731415e-2 2.8055270e-2 0.99730906
vn 0.0000000e+0 -0.13459244 0.99090104
vn 2.8055265e-2 6.7731417e-2 -0.99730906
vn 2.8055266e-2 -6.7731416e-2 -0.99730906
vn -0.13459244 8.3392902e-10 -0.99090104
vn 0.99730906 6.7731417e-2 2.8055265e-2
vn 0.99730906 -6.7731416e-2 2.8055266e-2
vn 0.99090104 8.3392902e-10 -0.13459244
vn -0.99730906 6.7731417e-2 -2.8055265e-2
vn -0.99730906 -6.7731416e-2 -2.8055266e-2
vn -0.99090104 8.3392902e-10 0.13459244
vn -6.7731412e-2 -2.8055278e-2 0.99730906
vn 6.7731412e-2 -2.8055278e-2 0.99730906
vn 0.0000000e+0 0.13459243 0.99090104
vn -2.8055265e-2 6.7731417e-2 0.99730906
vn -2.8055266e-2 -6.7731416e-2 0.99730906
vn 0.13459244 8.3392902e-10 0.99090104
vn 2.8055266e-2 -6.7731416e-2 0.99730906
vn 2.8055265e-2 6.7731417e-2 0.99730906
vn -0.13459244 8.3392902e-10 0.99090104
vn 0.99730906 -6.7731416e-2 -2.8055266e-2
vn 0.99730906 6.7731417e-2 -2.8055265e-2
vn 0.99090104 8.3392902e-10 0.13459244
vn 0.99730906 -2.8055278e-2 6.7731412e-2
vn 0.99730906 -2.8055278e-2 -6.7731412e-2
vn 0.99090104 0.13459243 0.0000000e+0
vn 0.99730906 2.8055270e-2 -6.7731415e-2
vn 0.99730906 2.8055270e-2 6.7731415e-2
vn 0.99090104 -0.13459244 0.0000000e+0
vn -2.8055266e-2 -6.7731416e-2 -0.99730906
vn -2.8055265e-2 6.7731417e-2 -0.99730906
vn 0.13459244 8.3392902e-10 -0.99090104
vn 6.7731412e-2 -2.8055278e-2 -0.99730906
vn -6.7731412e-2 -2.8055278e-2 -0.99730906
vn 0.0000000e+0 0.13459243 -0.99090104
vn -6.7731415e-2 2.8055270e-2 -0.99730906
vn 6.7731415e-2 2.8055270e-2 -0.99730906
vn 0.0000000e+0 -0.13459244 -0.99090104
vn -0.99730906 -6.7731416e-2 2.8055266e-2
vn -0.99730906 6.7731417e-2 2.8055265e-2
vn -0.99090104 8.3392902e-10 -0.13459244
vn -0.99730906 -2.8055278e-2 -6.7731412e-2
vn -0.99730906 -2.8055278e-2 6.7731412e-2
vn -0.99090104 0.13459243 0.0000000e+0
vn -0.99730906 2.8055270e-2 6.7731415e-2
vn -0.99730906 2.8055270e-2 -6.7731415e-2
vn -0.99090104 -0.13459244 0.0000000e+0
vn -2.8055266e-2 0.99730906 -6.7731416e-2
vn -2.8055266e-2 0.99730906 6.7731416e-2
vn 0.13459244 0.99090104 0.0000000e+0
vn 6.7731416e-2 0.99730906 -2.8055266e-2
vn -6.7731416e-2 0.99730906 -2.8055266e-2
vn 0.0000000e+0 0.99090104 0.13459244
vn -6.7731416e-2 0.99730906 2.8055266e-2
vn 6.7731416e-2 0.99730906 2.8055266e-2
vn 0.0000000e+0 0.99090104 -0.13459244
vn -6.7731416e-2 -0.99730906 -2.8055266e-2
vn 6.7731416e-2 -0.99730906 -2.8055266e-2
vn 0.0000000e+0 -0.99090104 0.13459244
vn -2.8055266e-2 -0.99730906 6.7731416e-2
vn -2.8055266e-2 -0.99730906 -6.7731416e-2
vn 0.13459244 -0.99090104 0.0000000e+0
vn 2.8055266e-2 -0.99730906 -6.7731416e-2
vn 2.8055266e-2 -0.99730906 6.7731416e-2
vn -0.13459244 -0.99090104 0.0000000e+0
g Cube4_Cube1_auv
usemtl Cube1_auv
s 1
f 1/50/1 18/37/18 20/23/20 14/25/14
f 1/98/1 24/92/24 26/82/26 11/74/11
f 1/98/1 58/86/58 57/65/57 5/52/5
f 1/1/1 61/11/61 60/12/60 3/6/3
f 1/1/1 66/13/66 68/28/68 12/29/12
f 1/50/1 85/44/85 84/41/84 2/48/2
f 2/2/2 21/14/21 23/26/23 9/24/9
f 2/51/2 30/42/30 32/33/32 12/29/12
f 2/2/2 40/7/40 39/9/39 4/3/4
f 2/51/2 67/38/67 66/13/66 1/1/1
f 2/48/2 79/35/79 78/15/78 6/5/6
f 2/48/2 84/41/84 86/32/86 14/25/14
f 3/54/3 15/60/15 17/71/17 13/78/13
f 3/97/3 25/91/25 24/92/24 1/98/1
f 3/97/3 54/85/54 56/75/56 11/74/11
f 3/6/3 60/12/60 62/19/62 12/29/12
f 3/6/3 64/18/64 63/39/63 4/53/4
f 3/54/3 76/66/76 75/87/75 7/99/7
f 4/56/4 16/62/16 15/60/15 3/54/3
f 4/53/4 31/45/31 30/42/30 2/51/2
f 4/3/4 34/16/34 33/36/33 8/47/8
f 4/3/4 39/9/39 41/20/41 9/24/9
f 4/53/4 63/39/63 65/30/65 12/29/12
f 4/56/4 72/68/72 74/76/74 13/78/13
f 5/4/5 19/17/19 18/37/18 1/50/1
f 5/102/5 27/96/27 29/84/29 10/79/10
f 5/102/5 49/90/49 48/69/48 6/57/6
f 5/52/5 52/59/52 51/58/51 7/49/7
f 5/52/5 57/65/57 59/73/59 11/74/11
f 5/4/5 81/10/81 83/21/83 14/25/14
f 6/46/6 22/34/22 21/14/21 2/2/2
f 6/46/6 36/40/36 38/31/38 9/24/9
f 6/57/6 43/63/43 42/61/42 8/55/8
f 6/57/6 48/69/48 50/77/50 10/79/10
f 6/5/6 78/15/78 80/27/80 14/25/14
f 6/5/6 82/8/82 81/10/81 5/4/5
f 7/100/7 28/94/28 27/96/27 5/102/5
f 7/100/7 45/88/45 47/81/47 10/79/10
f 7/49/7 51/58/51 53/70/53 11/74/11
f 7/49/7 55/64/55 54/85/54 3/97/3
f 7/99/7 70/93/70 69/95/69 8/101/8
f 7/99/7 75/87/75 77/80/77 13/78/13
f 8/47/8 33/36/33 35/22/35 9/24/9
f 8/47/8 37/43/37 36/40/36 6/46/6
f 8/55/8 42/61/42 44/72/44 10/79/10
f 8/55/8 46/67/46 45/88/45 7/100/7
f 8/101/8 69/95/69 71/83/71 13/78/13
f 8/101/8 73/89/73 72/68/72 4/56/4
f 9/24/9 23/26/23 22/34/22 6/46/6
f 9/24/9 35/22/35 34/16/34 4/3/4
f 9/24/9 38/31/38 37/43/37 8/47/8
f 9/24/9 41/20/41 40/7/40 2/2/2
f 10/79/10 29/84/29 28/94/28 7/100/7
f 10/79/10 44/72/44 43/63/43 6/57/6
f 10/79/10 47/81/47 46/67/46 8/55/8
f 10/79/10 50/77/50 49/90/49 5/102/5
f 11/74/11 26/82/26 25/91/25 3/97/3
f 11/74/11 53/70/53 52/59/52 5/52/5
f 11/74/11 56/75/56 55/64/55 7/49/7
f 11/74/11 59/73/59 58/86/58 1/98/1
f 12/29/12 32/33/32 31/45/31 4/53/4
f 12/29/12 62/19/62 61/11/61 1/1/1
f 12/29/12 65/30/65 64/18/64 3/6/3
f 12/29/12 68/28/68 67/38/67 2/51/2
f 13/78/13 17/71/17 16/62/16 4/56/4
f 13/78/13 71/83/71 70/93/70 7/99/7
f 13/78/13 74/76/74 73/89/73 8/101/8
f 13/78/13 77/80/77 76/66/76 3/54/3
f 14/25/14 20/23/20 19/17/19 5/4/5
f 14/25/14 80/27/80 79/35/79 2/48/2
f 14/25/14 83/21/83 82/8/82 6/5/6
f 14/25/14 86/32/86 85/44/85 1/50/1
f 16/62/16 17/71/17 15/60/15
f 19/17/19 20/23/20 18/37/18
f 22/34/22 23/26/23 21/14/21
f 25/91/25 26/82/26 24/92/24
f 28/94/28 29/84/29 27/96/27
f 31/45/31 32/33/32 30/42/30
f 34/16/34 35/22/35 33/36/33
f 37/43/37 38/31/38 36/40/36
f 40/7/40 41/20/41 39/9/39
f 43/63/43 44/72/44 42/61/42
f 46/67/46 47/81/47 45/88/45
f 49/90/49 50/77/50 48/69/48
f 52/59/52 53/70/53 51/58/51
f 55/64/55 56/75/56 54/85/54
f 58/86/58 59/73/59 57/65/57
f 61/11/61 62/19/62 60/12/60
f 64/18/64 65/30/65 63/39/63
f 67/38/67 68/28/68 66/13/66
f 70/93/70 71/83/71 69/95/69
f 73/89/73 74/76/74 72/68/72
f 76/66/76 77/80/77 75/87/75
f 79/35/79 80/27/80 78/15/78
f 82/8/82 83/21/83 81/10/81
f 85/44/85 86/32/86 84/41/84
