# Blender v2.74 (sub 0) OBJ File: ''
# www.blender.org
mtllib thrown_1.mtl
o Cube
v 0.768072 1.956118 0.820652
v -0.373385 1.946662 0.820652
v -0.598840 1.345850 0.820652
v -1.625758 1.345850 0.820652
v 0.768072 -0.043882 0.820652
v -1.625758 -0.043882 0.820652
v 0.768072 1.956118 1.217188
v -0.373385 1.946662 1.217188
v -0.598840 1.345850 1.217188
v -1.625758 1.345850 1.217188
v 0.768072 -0.043882 1.217188
v -1.625758 -0.043882 1.217188
v -0.373385 1.515934 0.820652
v -0.598840 0.915122 0.820652
v -1.625758 0.915122 0.820652
v 0.768072 1.956118 -0.820652
v -0.373385 1.946662 -0.820652
v -0.598840 1.345850 -0.820652
v -1.625758 1.345850 -0.820652
v 0.768072 -0.043882 -0.820652
v -1.625758 -0.043882 -0.820652
v 0.768072 1.956118 -1.217188
v -0.373385 1.946662 -1.217188
v -0.598840 1.345850 -1.217188
v -1.625758 1.345850 -1.217188
v 0.768072 -0.043882 -1.217188
v -1.625758 -0.043882 -1.217188
v 0.768072 1.956118 0.000000
v -0.373385 1.515934 -0.820652
v -0.598840 0.915122 -0.820652
v -1.625758 0.915122 -0.820652
v -0.373385 1.946662 0.000000
v -0.373385 1.515934 0.000000
v -0.598840 0.915122 0.000000
v -1.625758 0.915122 0.000000
v -1.625758 -0.043882 0.000000
v 0.768072 -0.043882 0.000000
vn 0.000000 1.000000 0.000000
vn -0.936300 0.351300 0.000000
vn -0.008300 1.000000 0.000000
vn -1.000000 0.000000 0.000000
vn -0.000000 0.000000 -1.000000
vn 1.000000 0.000000 0.000000
vn -0.000000 0.000000 1.000000
usemtl Material
s off
f 5//1 6//1 12//1 11//1
f 2//2 3//2 9//2 8//2
f 3//1 4//1 10//1 9//1
f 1//3 2//3 8//3 7//3
f 1//4 5//4 11//4 7//4
f 7//5 11//5 12//5 10//5 9//5 8//5
f 13//4 2//4 32//4 33//4
f 3//5 2//5 13//5 14//5
f 4//5 3//5 14//5 15//5
f 5//4 1//4 28//4 37//4
f 14//2 13//2 33//2 34//2
f 15//1 14//1 34//1 35//1
f 2//3 1//3 28//3 32//3
f 10//6 12//6 6//6 15//6 4//6
f 15//6 6//6 36//6 35//6
f 20//1 26//1 27//1 21//1
f 17//2 23//2 24//2 18//2
f 18//1 24//1 25//1 19//1
f 16//3 22//3 23//3 17//3
f 16//4 22//4 26//4 20//4
f 22//7 23//7 24//7 25//7 27//7 26//7
f 29//4 33//4 32//4 17//4
f 18//7 30//7 29//7 17//7
f 19//7 31//7 30//7 18//7
f 20//4 37//4 28//4 16//4
f 30//2 34//2 33//2 29//2
f 31//1 35//1 34//1 30//1
f 17//3 32//3 28//3 16//3
f 25//6 19//6 31//6 21//6 27//6
f 31//6 35//6 36//6 21//6
